<?xml version="1.0" encoding="UTF-8" standalone="no"?>
<!-- Created with Inkscape (http://www.inkscape.org/) -->

<svg
   width="176.38887mm"
   height="189.04414mm"
   viewBox="0 0 176.38887 189.04414"
   version="1.1"
   id="svg1"
   xml:space="preserve"
   sodipodi:docname="logo.svg"
   inkscape:version="1.4 (e7c3feb, 2024-10-09)"
   xmlns:inkscape="http://www.inkscape.org/namespaces/inkscape"
   xmlns:sodipodi="http://sodipodi.sourceforge.net/DTD/sodipodi-0.dtd"
   xmlns="http://www.w3.org/2000/svg"
   xmlns:svg="http://www.w3.org/2000/svg"><sodipodi:namedview
     id="namedview1"
     pagecolor="#ffffff"
     bordercolor="#000000"
     borderopacity="0.25"
     inkscape:showpageshadow="2"
     inkscape:pageopacity="0.0"
     inkscape:pagecheckerboard="0"
     inkscape:deskcolor="#d1d1d1"
     inkscape:document-units="mm"
     inkscape:zoom="1.1350634"
     inkscape:cx="333.02105"
     inkscape:cy="357.24878"
     inkscape:window-width="1862"
     inkscape:window-height="1016"
     inkscape:window-x="0"
     inkscape:window-y="0"
     inkscape:window-maximized="1"
     inkscape:current-layer="svg1" /><defs
     id="defs1" /><text
     xml:space="preserve"
     style="font-style:italic;font-variant:normal;font-weight:normal;font-stretch:normal;font-size:50.8px;font-family:Serif;-inkscape-font-specification:'Serif, Italic';font-variant-ligatures:normal;font-variant-caps:normal;font-variant-numeric:normal;font-variant-east-asian:normal;fill:#ac9d93;stroke:#ac9d93;stroke-width:0.63;stroke-dasharray:none;stroke-dashoffset:0;stroke-opacity:1"
     x="200.60159"
     y="134.25874"
     id="text1"><tspan
       id="tspan1"
       style="font-style:italic;font-variant:normal;font-weight:normal;font-stretch:normal;font-size:50.8px;font-family:Serif;-inkscape-font-specification:'Serif, Italic';font-variant-ligatures:normal;font-variant-caps:normal;font-variant-numeric:normal;font-variant-east-asian:normal;fill:#ac9d93;stroke:#ac9d93;stroke-width:0.63;stroke-dasharray:none;stroke-dashoffset:0;stroke-opacity:1"
       x="200.60159"
       y="134.25874">framework</tspan></text><text
     xml:space="preserve"
     style="font-style:normal;font-variant:normal;font-weight:normal;font-stretch:normal;font-size:50.8px;font-family:Ubuntu;-inkscape-font-specification:'Ubuntu, Normal';font-variant-ligatures:normal;font-variant-caps:normal;font-variant-numeric:normal;font-variant-east-asian:normal;fill:#002255;stroke:#000000;stroke-width:0.63;stroke-dasharray:none;stroke-dashoffset:0"
     x="193.34219"
     y="89.122757"
     id="text2"><tspan
       id="tspan2"
       style="font-style:normal;font-variant:normal;font-weight:normal;font-stretch:normal;font-size:50.8px;font-family:Ubuntu;-inkscape-font-specification:'Ubuntu, Normal';font-variant-ligatures:normal;font-variant-caps:normal;font-variant-numeric:normal;font-variant-east-asian:normal;fill:#002255;stroke-width:0.63;stroke-dasharray:none;stroke-dashoffset:0"
       x="193.34219"
       y="89.122757">Key Technical Decisions</tspan></text><g
     style="fill:#71c837"
     id="g6"
     transform="matrix(8.8194444,0,0,8.8194444,-17.6389,-11.311488)"
     inkscape:export-filename="g9.webp"
     inkscape:export-xdpi="96"
     inkscape:export-ydpi="96"><path
       d="m 11.0362,1.53011 c 0.6001,-0.33009 1.3275,-0.33009 1.9276,0 l 8,4.4 C 21.6029,6.28161 22,6.95316 22,7.68254 v 8.63496 c 0,0.7293 -0.3971,1.4009 -1.0362,1.7524 l -8,4.4 c -0.6001,0.3301 -1.3275,0.3301 -1.9276,0 l -8.00004,-4.4 C 2.39707,17.7184 2,17.0468 2,16.3175 V 7.68254 C 2,6.95316 2.39707,6.28161 3.03616,5.93011 Z"
       fill="#000000"
       id="path6"
       style="fill:#71c837" /></g><g
     style="fill:#ffffff"
     id="g10"
     transform="matrix(0.23737929,0,0,0.23737929,31.3968,36.890062)"
     inkscape:export-filename="g7.webp"
     inkscape:export-xdpi="96"
     inkscape:export-ydpi="96"><g
       id="g9"
       style="fill:#ffffff">
	<g
   id="g8"
   style="fill:#ffffff">
		<path
   d="m 152,255.275 v -109.8 H 19.5 c -10.8,0 -19.5,8.7 -19.5,19.5 v 186.1 c 0,10.8 8.7,19.5 19.5,19.5 h 27.6 v 64.4 c 0,4.4 5.3,6.6 8.4,3.5 l 67.9,-67.9 h 194.7 c 10.8,0 19.5,-8.7 19.5,-19.5 v -76.3 h -166 c -10.8,0 -19.6,-8.7 -19.6,-19.5 z"
   id="path7"
   style="fill:#ffffff" />
		<polygon
   points="216,229.775 233.2,247.075 250.5,229.875 290.1,190.475 272.9,173.175 233.3,212.575 216.8,195.875 199.5,213.075 "
   id="polygon7"
   style="fill:#ffffff" />
		<path
   d="M 470.1,49.675 H 171.5 c -10.8,0 -19.5,8.7 -19.5,19.5 v 76.3 h 166 c 10.8,0 19.5,8.7 19.5,19.5 v 109.8 h 28.7 l 67.9,67.9 c 3.1,3.1 8.4,0.9 8.4,-3.5 v -64.4 h 27.6 c 10.8,0 19.5,-8.7 19.5,-19.5 v -186.1 c 0,-10.8 -8.7,-19.5 -19.5,-19.5 z"
   id="path8"
   style="fill:#ffffff" />
	</g>
</g></g></svg>
